<svg width="835px" height="618px" viewBox="-523 -504 835 618" version="1.1" font-family="Arial" xmlns="http://www.w3.org/2000/svg"><defs><marker id="arrowhead" markerWidth="14" markerHeight="10" refX="40" refY="5" orient="auto"><polygon fill="#2b7ce9" points="0 0, 14 5, 0 10, 2 5"></polygon></marker><filter id="outlined"><feMorphology in="SourceAlpha" result="DILATED" operator="dilate" radius="1"></feMorphology><feFlood flood-color="white" flood-opacity="1" result="FLOODED"></feFlood><feComposite in="FLOODED" in2="DILATED" operator="in" result="OUTLINE"></feComposite><feMerge><feMergeNode in="OUTLINE"></feMergeNode><feMergeNode in="SourceGraphic"></feMergeNode></feMerge></filter><g id="icon-579786380-ion-ios-person"><path d="M267 84c13 -5 53 -20 53 -52h-160h-160c0 32 40 47 53 52s31 6 43 9c7 2 17 5 20 9s1 41 1 41s-6 10 -9 18s-7 32 -7 32s-7 0 -9 12c-2 13 -6 17 -6 27c0 9 5 10 5 10v0s-4 13 -5 42c-1 34 25 68 74 68s75 -34 74 -68c-1 -29 -5 -42 -5 -42v0s5 -1 5 -10 c0 -10 -3 -15 -6 -28c-2 -12 -9 -12 -9 -12s-4 -23 -7 -31s-9 -18 -9 -18s-2 -37 1 -41s13 -7 20 -9c12 -3 30 -4 43 -9z" fill="#97c2fc" transform="scale(0.06696428571428571 -0.06696428571428571) translate(-160 -224)"></path></g></defs><line x1="-168" y1="-28" x2="-321" y2="-266" marker-end="url(#arrowhead)" stroke="#2b7ce9"></line><text x="-244.5" y="-147" style="filter: url(&quot;#outlined&quot;);" text-anchor="middle">has_father</text><line x1="-168" y1="-28" x2="-460" y2="-225" marker-end="url(#arrowhead)" stroke="#2b7ce9"></line><text x="-314" y="-126.5" style="filter: url(&quot;#outlined&quot;);" text-anchor="middle">has_mother</text><line x1="-473" y1="33" x2="-321" y2="-266" marker-end="url(#arrowhead)" stroke="#2b7ce9"></line><text x="-397" y="-116.5" style="filter: url(&quot;#outlined&quot;);" text-anchor="middle">has_father</text><line x1="-473" y1="33" x2="-460" y2="-225" marker-end="url(#arrowhead)" stroke="#2b7ce9"></line><text x="-466.5" y="-96" style="filter: url(&quot;#outlined&quot;);" text-anchor="middle">has_mother</text><line x1="-75" y1="9" x2="166" y2="-299" marker-end="url(#arrowhead)" stroke="#2b7ce9"></line><text x="45.5" y="-145" style="filter: url(&quot;#outlined&quot;);" text-anchor="middle">has_father</text><line x1="-75" y1="9" x2="-139" y2="-224" marker-end="url(#arrowhead)" stroke="#2b7ce9"></line><text x="-107" y="-107.5" style="filter: url(&quot;#outlined&quot;);" text-anchor="middle">has_mother</text><line x1="262" y1="36" x2="166" y2="-299" marker-end="url(#arrowhead)" stroke="#2b7ce9"></line><text x="214" y="-131.5" style="filter: url(&quot;#outlined&quot;);" text-anchor="middle">has_father</text><line x1="262" y1="36" x2="-139" y2="-224" marker-end="url(#arrowhead)" stroke="#2b7ce9"></line><text x="61.5" y="-94" style="filter: url(&quot;#outlined&quot;);" text-anchor="middle">has_mother</text><line x1="-139" y1="-224" x2="-97" y2="-453" marker-end="url(#arrowhead)" stroke="#2b7ce9"></line><text x="-118" y="-338.5" style="filter: url(&quot;#outlined&quot;);" text-anchor="middle">has_father</text><line x1="-139" y1="-224" x2="-446" y2="-444" marker-end="url(#arrowhead)" stroke="#2b7ce9"></line><text x="-292.5" y="-334" style="filter: url(&quot;#outlined&quot;);" text-anchor="middle">has_mother</text><line x1="96" y1="64" x2="-139" y2="-224" marker-end="url(#arrowhead)" stroke="#2b7ce9"></line><text x="-21.5" y="-80" style="filter: url(&quot;#outlined&quot;);" text-anchor="middle">has_mother</text><line x1="-321" y1="-266" x2="-97" y2="-453" marker-end="url(#arrowhead)" stroke="#2b7ce9"></line><text x="-209" y="-359.5" style="filter: url(&quot;#outlined&quot;);" text-anchor="middle">has_father</text><line x1="-321" y1="-266" x2="-446" y2="-444" marker-end="url(#arrowhead)" stroke="#2b7ce9"></line><text x="-383.5" y="-355" style="filter: url(&quot;#outlined&quot;);" text-anchor="middle">has_mother</text><line x1="96" y1="64" x2="166" y2="-299" marker-end="url(#arrowhead)" stroke="#2b7ce9"></line><text x="131" y="-117.5" style="filter: url(&quot;#outlined&quot;);" text-anchor="middle">has_father</text><line x1="166" y1="-299" x2="185" y2="-447" marker-end="url(#arrowhead)" stroke="#2b7ce9"></line><text x="175.5" y="-373" style="filter: url(&quot;#outlined&quot;);" text-anchor="middle">has_father</text><line x1="166" y1="-299" x2="-2" y2="-454" marker-end="url(#arrowhead)" stroke="#2b7ce9"></line><text x="82" y="-376.5" style="filter: url(&quot;#outlined&quot;);" text-anchor="middle">has_mother</text><g transform="translate(-139 -224)"><use href="#icon-579786380-ion-ios-person"></use><title>birth_year: 1981
gender: "female"
name: "Ginny Weasley"</title></g><text x="-139" y="-194" style="filter: url(&quot;#outlined&quot;);" text-anchor="middle">Ginny Weasley</text><g transform="translate(166 -299)"><use href="#icon-579786380-ion-ios-person"></use><title>birth_year: 1980
gender: "male"
name: "Harry Potter"</title></g><text x="166" y="-269" style="filter: url(&quot;#outlined&quot;);" text-anchor="middle">Harry Potter</text><g transform="translate(-2 -454)"><use href="#icon-579786380-ion-ios-person"></use><title>birth_year: 1960
gender: "female"
name: "Lily Potter"</title></g><text x="-2" y="-424" style="filter: url(&quot;#outlined&quot;);" text-anchor="middle">Lily Potter</text><g transform="translate(185 -447)"><use href="#icon-579786380-ion-ios-person"></use><title>birth_year: 1960
gender: "male"
name: "James Potter"</title></g><text x="185" y="-417" style="filter: url(&quot;#outlined&quot;);" text-anchor="middle">James Potter</text><g transform="translate(-97 -453)"><use href="#icon-579786380-ion-ios-person"></use><title>birth_year: 1950
gender: "male"
name: "Arthur Weasley"</title></g><text x="-97" y="-423" style="filter: url(&quot;#outlined&quot;);" text-anchor="middle">Arthur Weasley</text><g transform="translate(-168 -28)"><use href="#icon-579786380-ion-ios-person"></use><title>birth_year: 2005
gender: "female"
name: "Rose Weasley"</title></g><text x="-168" y="2" style="filter: url(&quot;#outlined&quot;);" text-anchor="middle">Rose Weasley</text><g transform="translate(-460 -225)"><use href="#icon-579786380-ion-ios-person"></use><title>birth_year: 1979
gender: "female"
name: "Hermione Granger"</title></g><text x="-460" y="-195" style="filter: url(&quot;#outlined&quot;);" text-anchor="middle">Hermione Granger</text><g transform="translate(-75 9)"><use href="#icon-579786380-ion-ios-person"></use><title>birth_year: 2005
gender: "male"
name: "Albus Severus Potter"</title></g><text x="-75" y="39" style="filter: url(&quot;#outlined&quot;);" text-anchor="middle">Albus Severus Potter</text><g transform="translate(-321 -266)"><use href="#icon-579786380-ion-ios-person"></use><title>birth_year: 1980
gender: "male"
name: "Ron Weasley"</title></g><text x="-321" y="-236" style="filter: url(&quot;#outlined&quot;);" text-anchor="middle">Ron Weasley</text><g transform="translate(262 36)"><use href="#icon-579786380-ion-ios-person"></use><title>birth_year: 2003
gender: "male"
name: "James Sirius Potter"</title></g><text x="262" y="66" style="filter: url(&quot;#outlined&quot;);" text-anchor="middle">James Sirius Potter</text><g transform="translate(-446 -444)"><use href="#icon-579786380-ion-ios-person"></use><title>birth_year: 1949
gender: "female"
name: "Molly Weasley"</title></g><text x="-446" y="-414" style="filter: url(&quot;#outlined&quot;);" text-anchor="middle">Molly Weasley</text><g transform="translate(96 64)"><use href="#icon-579786380-ion-ios-person"></use><title>birth_year: 2007
gender: "female"
name: "Lily Luna"</title></g><text x="96" y="94" style="filter: url(&quot;#outlined&quot;);" text-anchor="middle">Lily Luna</text><g transform="translate(-473 33)"><use href="#icon-579786380-ion-ios-person"></use><title>birth_year: 2008
gender: "male"
name: "Hugo Weasley"</title></g><text x="-473" y="63" style="filter: url(&quot;#outlined&quot;);" text-anchor="middle">Hugo Weasley</text></svg>